OpenSim_Sub07_CSStiffKnee_LCS.mot
version=1
nRows=78
nColumns=11
inDegrees=no
endheader
time	Bot_Shank	2nd_Bot_Shank	2nd_Top_Shank	Top_Shank	Bot_Thigh	Med_Thigh	Top_Thigh	BNOx	BNOy	BNOZ
33.67000000	9678.55679648	8940.14625596	10280.38537875	10021.90550160	10846.07824289	11235.91627320	13425.08238184	206.38987753	-70.59382226	148.78320502
33.68000000	9682.41551172	8940.47241385	10256.26040906	10010.54210214	10842.88331957	11238.09885800	13470.31459104	205.29338242	-70.97158530	150.90086537
33.69000000	9686.23780944	8941.53772634	10233.00312010	10000.49256694	10835.68304693	11241.17599247	13512.01377282	204.29469577	-71.24926747	153.02995693
33.70000000	9690.32428324	8943.24413376	10211.85309779	9991.95811522	10826.55867142	11245.33142192	13546.26034190	203.40561325	-71.44961967	155.13107300
33.71000000	9694.97552671	8945.49357647	10194.04992807	9985.13996619	10817.59143947	11250.74889164	13569.13471303	202.63793054	-71.59539279	157.16480688
33.72000000	9700.44989234	8948.18969569	10180.67981664	9980.20023719	10810.65649180	11257.55389329	13577.26698376	202.00066731	-71.70777126	159.09144654
33.73000000	9706.69354454	8951.24870314	10171.69539346	9977.01205820	10806.10571880	11265.44138767	13571.34975129	201.48232667	-71.79636245	160.86902350
33.74000000	9713.51272410	8954.59244466	10166.54121652	9975.31903420	10803.60828558	11273.91337040	13553.89643719	201.06221615	-71.86558484	162.45455793
33.75000000	9720.71301177	8958.14279267	10164.65944724	9974.86415923	10802.83013687	11282.47092685	13527.42905182	200.71959993	-71.91983244	163.80506523
33.76000000	9728.09998834	8961.82161959	10165.49224702	9975.39042730	10803.43721738	11290.61514242	13494.46960554	200.43374216	-71.96349927	164.87756078
33.77000000	9735.47923455	8965.55079785	10168.48177728	9976.64083244	10805.09547181	11297.84710251	13457.54010872	200.18390700	-72.00097932	165.62905999
33.78000000	9742.65633119	8969.25219988	10173.07019944	9978.35836868	10807.47084489	11303.66789249	13419.16257172	199.94935863	-72.03666661	166.01657825
33.79000000	9749.43685901	8972.84769808	10178.69967490	9980.28603004	10810.22928131	11307.57859777	13381.85900490	199.70936121	-72.07495515	165.99713095
33.80000000	9755.62639878	8976.25916489	10184.81236508	9982.16681054	10813.03672581	11309.08030372	13348.15141862	199.44317889	-72.12023894	165.52773349
33.81000000	9761.03053127	8979.40847274	10190.85043140	9983.74370421	10815.55912308	11307.67409575	13320.56182325	199.13007585	-72.17691200	164.56540126
33.82000000	9765.48005226	8982.21916957	10196.32302918	9984.79145396	10817.49576896	11302.97058737	13301.27568861	198.75249279	-72.24873358	163.10539158
33.83000000	9768.99211233	8984.62718670	10201.23444070	9985.31944676	10818.79244494	11295.38987337	13289.99123955	198.31634711	-72.33477168	161.42559337
33.84000000	9771.66738681	8986.57400564	10205.81086560	9985.44223777	10819.50540809	11285.71486048	13285.29191041	197.83807851	-72.43199166	159.93057192
33.85000000	9773.60694500	8988.00113412	10210.27955030	9985.27487821	10819.69143659	11274.73016679	13285.75587705	197.33417634	-72.53734898	159.02549002
33.86000000	9774.91185624	8988.85007986	10214.86774119	9984.93241932	10819.40730862	11263.22041038	13289.96131535	196.82112993	-72.64779908	159.11551046
33.87000000	9775.68318982	8989.06235056	10219.80268471	9984.52991231	10818.70980238	11251.97020936	13296.48640118	196.31542863	-72.76029742	160.60579606
33.88000000	9776.02201508	8988.57945394	10225.31162726	9984.18240843	10817.65569604	11241.76418181	13303.90931041	195.83356177	-72.87179944	163.90150962
33.89000000	9776.02940133	8987.34289772	10231.62181526	9984.00495888	10816.30176780	11233.38694582	13310.80821891	195.39201870	-72.97926059	169.40781392
33.90000000	9775.81291766	8985.32069119	10238.93325606	9984.09390061	10814.71652013	11227.52027372	13315.90964376	195.00500042	-73.08009114	177.37645086
33.91000000	9775.52817057	8982.67670697	10247.24464331	9984.40726017	10813.05510543	11224.08584332	13319.03643624	194.66979567	-73.17506261	186.92528580
33.92000000	9775.35229708	8979.66260414	10256.46444127	9984.84107304	10811.51151282	11222.66465583	13320.50282783	194.37611309	-73.26645309	196.66397729
33.93000000	9775.46253576	8976.53045590	10266.50068857	9985.29108225	10810.27991464	11222.83610551	13320.62536787	194.11362554	-73.35654776	205.19978671
33.94000000	9776.03612518	8973.53233544	10277.26142386	9985.65303086	10809.55448320	11224.17958660	13319.72060569	193.87200589	-73.44763181	211.13997540
33.95000000	9777.25030391	8970.92031596	10288.65468579	9985.82266189	10809.52939084	11226.27449334	13318.10509062	193.64092702	-73.54199043	213.09180473
33.96000000	9779.28231053	8968.94647065	10300.58851299	9985.69571842	10810.39880987	11228.70021998	13316.09537199	193.41006180	-73.64190880	209.66253606
33.97000000	9782.30938362	8967.86287270	10312.97094412	9985.16794347	10812.35691261	11231.03616077	13314.00799914	193.16908309	-73.74967210	199.45943074
33.98000000	9786.50876173	8967.92159529	10325.71001780	9984.13508009	10815.59787140	11232.86170994	13312.15952139	192.90766376	-73.86756552	181.08975014
33.99000000	9792.00235420	8969.31936250	10338.66778813	9982.54252621	10820.24754210	11233.83458920	13310.81830045	192.61658479	-73.99725727	153.59111072
34	9798.61280671	8971.95352713	10351.45758882	9980.60425199	10826.06227189	11234.03617611	13309.99206177	192.29262063	-74.13707839	118.32882474
34.01000000	9806.06204902	8975.62068989	10363.60904782	9978.62461442	10832.67405139	11233.69042782	13309.60081478	191.93456281	-74.28423684	77.45158061
34.02000000	9814.07193499	8980.11737553	10374.65172999	9976.90803865	10839.71477751	11233.02140894	13309.56450278	191.54120437	-74.43593975	33.10865710
34.03000000	9822.36431848	8985.24010882	10384.11520018	9975.75894980	10846.81634714	11232.25318406	13309.80306912	191.11133836	-74.58939421	-12.55066703
34.04000000	9830.66105335	8990.78541454	10391.52902326	9975.48177299	10853.61065718	11231.60981779	13310.23645711	190.64375783	-74.74180733	-57.37711301
34.05000000	9838.68399346	8996.54981745	10396.42276408	9976.38093335	10859.72960454	11231.31537472	13310.78461007	190.13725583	-74.89038624	-99.22140209
34.06000000	9846.15499268	9002.32984231	10398.32598751	9978.76085600	10864.80508611	11231.59391945	13311.36747133	189.59062541	-75.03233803	-135.93425549
34.07000000	9852.79590487	9007.92201390	10396.76825842	9982.92596608	10868.46899880	11232.66951660	13311.90498422	189.00265962	-75.16486982	-165.36639447
34.08000000	9858.33164338	9013.11662528	10391.32885132	9989.05676530	10870.42052719	11234.77190695	13312.32573466	188.37270536	-75.28549148	-185.67159640
34.09000000	9862.50973322	9017.65791343	10381.95442634	9996.41788390	10870.85615382	11238.17278198	13312.62218291	187.70420301	-75.39395049	-197.24341302
34.10000000	9865.08783397	9021.26947283	10368.75630687	10003.86345585	10870.19525170	11243.16263556	13312.81541787	187.00242761	-75.49099723	-201.47926958
34.11000000	9865.82365304	9023.67480058	10351.84659305	10010.24567878	10868.85824518	11250.03205026	13312.92666350	186.27266286	-75.57738682	-199.78132657
34.12000000	9864.47489782	9024.59739382	10331.33738498	10014.41675035	10867.26555861	11259.07160866	13312.97714375	185.52019248	-75.65387437	-193.55174447
34.13000000	9860.79927572	9023.76074964	10307.34078279	10015.22886821	10865.83761635	11270.57189333	13312.98808256	184.75030015	-75.72121499	-184.19268377
34.14000000	9854.55449412	9020.88836516	10279.96888659	10011.53423000	10864.99484276	11284.82348683	13312.98070389	183.96826958	-75.78016378	-173.10630497
34.15000000	9845.49826044	9015.70373750	10249.33379652	10002.18503337	10865.15766220	11302.11697173	13312.97623168	183.17938449	-75.83147587	-161.69476856
34.16000000	9833.38828206	9007.93036377	10215.54761269	9986.03347597	10866.74649902	11322.74293061	13312.99588988	182.38892857	-75.87590637	-151.36023502
34.17000000	9818.13888413	8997.42468997	10178.92817147	9962.42722555	10870.16191075	11346.97844351	13313.19836580	181.60001053	-75.91162121	-143.28263454
34.18000000	9800.51150255	8984.76225334	10140.90609127	9933.39383816	10875.69699962	11375.02755825	13314.48585566	180.80397511	-75.92278210	-137.43990273
34.19000000	9781.55266476	8970.76059820	10103.28649255	9901.86277496	10883.60870422	11407.06974398	13318.01078046	179.98820789	-75.88883767	-133.40544896
34.20000000	9762.30911306	8956.23745126	10067.87477800	9870.76417676	10894.15393591	11443.28445133	13324.92574979	179.14009147	-75.78923299	-130.75237778
34.21000000	9743.82758974	8942.01053923	10036.47635032	9843.02818437	10907.58960602	11483.85113093	13336.38337321	178.24700847	-75.60341315	-129.05379373
34.22000000	9727.15483709	8928.89758881	10010.89661219	9821.58493861	10924.17262591	11528.94923339	13353.53626030	177.29634148	-75.31082322	-127.88280135
34.23000000	9713.33759739	8917.71632672	9992.94096631	9809.36458030	10944.15990692	11578.75820935	13377.53702064	176.27547313	-74.89090827	-126.81250519
34.24000000	9703.42261294	8909.28447966	9984.41481536	9809.29725023	10967.80836041	11633.45750943	13409.53826379	175.17178601	-74.32311340	-125.41600979
34.25000000	9698.28548091	8904.31615860	9986.81629424	9823.82997890	10995.27814409	11692.98875602	13450.29111073	173.97501578	-73.59120009	-123.31854633
34.26000000	9697.53692904	8902.75968946	9999.37263678	9851.83930948	11026.01434602	11755.53587215	13497.57943072	172.69228865	-72.71083083	-120.53059445
34.27000000	9700.22076690	8904.22017107	10020.29325224	9890.60148216	11059.14155787	11818.49497481	13547.85716202	171.33852529	-71.71196624	-117.23530328
34.28000000	9705.37812987	8908.30108322	10047.78274881	9937.38518855	11093.78285956	11879.25846491	13597.57196962	169.92868317	-70.62463438	-113.61663642
34.29000000	9712.05015335	8914.60590573	10080.04573467	9989.45912025	11129.06133099	11935.21874338	13643.17151853	168.47771973	-69.47886331	-109.85855750
34.30000000	9719.27797274	8922.73811842	10115.28681803	10044.09196885	11164.10005209	11983.76821113	13681.10347375	167.00059244	-68.30468110	-106.14503012
34.31000000	9726.10272345	8932.30120108	10151.71060709	10098.55242595	11198.02210275	12022.29926908	13707.81550028	165.51225874	-67.13211580	-102.66001789
34.32000000	9731.56554088	8942.89863354	10187.52171003	10150.10918315	11229.95056289	12048.20431815	13719.75526312	164.02767610	-65.99119548	-99.58748442
34.33000000	9734.86268598	8954.12825804	10221.13647219	10196.40192101	11259.00423242	12059.35228393	13714.18087781	162.56391499	-64.91185159	-97.07718210
34.34000000	9736.02945965	8965.55742441	10252.11647835	10237.07691746	11284.27876169	12056.18950872	13692.73400793	161.14947485	-63.92349309	-95.09382237
34.35000000	9735.38353815	8976.74322043	10280.40873878	10272.45576229	11304.86201017	12040.02975354	13658.53158161	159.81670150	-63.05535312	-93.53984193
34.36000000	9733.24281050	8987.24272613	10305.96055421	10302.86055420	11319.84183144	12012.18743308	13614.69163874	158.59794364	-62.33666466	-92.31763054
34.37000000	9729.92516573	8996.61302154	10328.71922536	10328.61339188	11328.30607910	11973.97696201	13564.33221918	157.52554995	-61.79666069	-91.32957797
34.38000000	9725.74849288	9004.41118668	10348.63205296	10350.03637403	11329.34260673	11926.71275502	13510.57136282	156.63186915	-61.46457420	-90.47807398
34.39000000	9721.03068099	9010.19430160	10365.64633773	10367.45159934	11322.03926793	11871.70922680	13456.52710952	155.94924994	-61.36963819	-89.66550835
34.40000000	9716.08961908	9013.51944632	10379.70938039	10381.18116651	11305.48391630	11810.28079202	13405.31749916	155.51004102	-61.54108565	-88.79427082
34.41000000	9711.24319619	9013.94370087	10390.76848167	10391.54717423	11278.76440541	11743.74186537	13360.06057161	155.34659108	-62.00814955	-87.76675118
34.42000000	9706.80930136	9011.02414529	10398.77094229	10398.87172121	11240.96858887	11673.40686154	13323.87436674	155.49124884	-62.80006290	-86.48533918
34.43000000	9703.05232344	9004.44444539	10403.71722460	10403.49036518	11191.56751214	11600.67837568	13299.42407859	155.96984494	-63.93656831	-84.91112127
34.44000000	9699.84125145	8994.82381510	10406.00068856	10405.83813467	11132.86424820	11527.61071182	13286.02808734	156.76003752	-65.36726875	-83.43898904
